<svg version="1.0" xmlns="http://www.w3.org/2000/svg" width="32" height="20"><path fill="#454545" d="M29 0H3a3 3 0 00-3 3v14a3 3 0 003 3h26a3 3 0 003-3V3a3 3 0 00-3-3zM14.4 15.9l-1.7.1a6 6 0 01-2-.3c-.6-.2-1.1-.6-1.6-1s-.8-1.1-1.1-2c-.3-.7-.4-1.6-.4-2.7s.1-2 .4-2.9c.3-.7.7-1.3 1.2-1.8s1.1-.8 1.7-1c.6-.2 1.3-.3 1.9-.3a9 9 0 012.8.4l-.5 2c-.2-.2-.5-.3-.9-.3L13 6c-1 0-1.7.3-2.2 1-.6.6-.9 1.6-.9 3l.2 1.6.6 1.3 1 .8c.4.2 1 .3 1.4.3l1.3-.1.9-.4.5 1.8c-.4.3-.9.4-1.4.6zm8.7 0l-1.7.1a6 6 0 01-2-.3c-.6-.2-1.1-.6-1.6-1s-.9-1.1-1.1-2c-.3-.7-.5-1.6-.5-2.7s.2-2 .5-2.9c.3-.7.7-1.3 1.2-1.8s1.1-.8 1.7-1C20.2 4 21 4 21.5 4a9 9 0 012.8.4l-.5 2c-.2-.2-.5-.3-.9-.3L21.7 6c-1 0-1.7.3-2.2 1-.6.6-.9 1.6-.9 3l.2 1.6.6 1.3 1 .8c.4.2 1 .3 1.4.3l1.3-.1.9-.4.4 1.8c-.3.3-.8.4-1.3.6z"/></svg>